<?xml version="1.0" encoding="utf-8"?>
<!-- Generator: Adobe Illustrator 22.1.0, SVG Export Plug-In . SVG Version: 6.00 Build 0)  -->
<svg version="1.1" id="Layer_1" xmlns="http://www.w3.org/2000/svg" xmlns:xlink="http://www.w3.org/1999/xlink" x="0px" y="0px"
	 viewBox="0 0 35.4 59.3" style="enable-background:new 0 0 35.4 59.3;" xml:space="preserve">
<style type="text/css">
	.st0{fill:none;stroke:#000000;stroke-width:0.75;}
	.st1{fill:none;stroke:#000000;stroke-width:2;stroke-linecap:round;}
	.st2{fill:none;stroke:#000000;stroke-width:2;}
	.st3{fill:none;stroke:#000000;stroke-width:0.75;stroke-linecap:round;stroke-linejoin:round;stroke-miterlimit:10;}
	.st4{fill:none;stroke:#000000;stroke-width:2;stroke-linecap:round;stroke-linejoin:round;stroke-miterlimit:10;}
	.st5{fill:#DB6565;}
</style>
<title>Group 3</title>
<desc>Created with Sketch.</desc>
<g id="Desktop-Copy-4" transform="translate(-29.000000, -27.000000)">
	<g id="Group-3" transform="translate(31.000000, 29.000000)">
		<g id="Group">
			<path id="Oval-3_1_" class="st0" d="M-1.8,20.5"/>
		</g>
	</g>
</g>
<path id="Path-2" class="st1" d="M11.2,49.1c3.1,2,9.9,2,13,0"/>
<path id="Path-2_2_" class="st1" d="M12.2,53.3c3,1.2,7.9,1.3,11,0"/>
<path id="Path-2_3_" class="st1" d="M13.9,57.4c3.2,0.8,4.5,0.8,7.8-0.1"/>
<path id="Oval-3" class="st2" d="M34.2,18.6c0-9.7-6.8-17.5-16.5-17.5S1.2,8.9,1.2,18.6c0,4.7,4.2,10,5.8,16.3
	c1.6,6.7,0,12.2,10.7,12.2s9.3-5.5,11-12.2C30.3,28.6,34.2,23.3,34.2,18.6z"/>
<path class="st3" d="M22.8,42.7"/>
<path class="st4" d="M11.9,19.3c0,0-3.7,12.5-0.6,12.5s3.8-12.5,6.4-12.5s2.3,16.5-1.2,16.5c-4.2,0,4.1-14.6,6.8-14.6
	c2.8,0-0.6,10.9,1.6,12.4"/>
<circle class="st5" cx="12.7" cy="14.6" r="2"/>
</svg>
