<?xml version="1.0" encoding="UTF-8"?>
<svg width="39px" height="66px" viewBox="0 0 39 66" version="1.1" xmlns="http://www.w3.org/2000/svg" xmlns:xlink="http://www.w3.org/1999/xlink">
    <!-- Generator: Sketch 51.2 (57519) - http://www.bohemiancoding.com/sketch -->
    <title>Group 3</title>
    <desc>Created with Sketch.</desc>
    <defs></defs>
    <g id="Page-1" stroke="none" stroke-width="1" fill="none" fill-rule="evenodd">
        <g id="Desktop-Copy-4" transform="translate(-29.000000, -27.000000)" fill-rule="nonzero">
            <g id="Group-3" transform="translate(31.000000, 29.000000)">
                <circle id="Oval" fill="#E6ADAD" cx="7.5" cy="10.5" r="2.5"></circle>
                <g id="Group" stroke-width="4">
                    <path d="M10,53 C13.1486871,55 15.6486871,56 17.5,56 C19.3513129,56 21.8513129,55 25,53" id="Path-2" stroke="#2E2E2E" stroke-linecap="round"></path>
                    <path d="M12,60 C14.5751754,61.3333333 16.5751754,62 18,62 C19.4248246,62 21.4248246,61.3333333 24,60" id="Path-3" stroke="#2E2E2E" stroke-linecap="round"></path>
                    <path d="M12.5678771,45 C10.1892924,29.7072044 9,21.1490629 9,19.3255757 C9,16.5903448 10.8398652,25.8947403 12.5678771,29.1627878 C14.295889,32.4308354 16.3758,36.1257005 18.0300559,32.2946004 C19.6843117,28.4635004 16.6392884,18.1452734 18.0300559,16.5128985 C18.9258378,15.4614993 20.2171077,18.4327452 21.9038657,25.4266363 L21.9038636,25.4266368 C21.9297609,25.5340162 22.037803,25.6000705 22.1451824,25.5741732 C22.2156035,25.5571893 22.2713364,25.5034542 22.2908784,25.4336996 L25.5268862,13.8828783 C25.5566839,13.7765165 25.667063,13.714449 25.7734248,13.7442467 C25.8325575,13.7608129 25.8808017,13.8036266 25.9042787,13.8603711 L31,26.1768511" id="Path-4" stroke="#E6ADAD" stroke-linecap="round"></path>
                    <path d="M17.5,48 C28.2397628,48 26.8398492,42.4737232 28.5027057,35.7929396 C30.0664975,29.5101635 35,22.2063426 35,17.517527 C35,7.84286396 27.1649831,0 17.5,0 C7.83501688,0 0,7.84286396 0,17.517527 C0,22.2136745 5.17722089,29.5330118 6.75082103,35.8224051 C8.41903794,42.4899644 6.77603045,48 17.5,48 Z" id="Oval-3" stroke="#E6ADAD"></path>
                </g>
            </g>
        </g>
    </g>
</svg>