<?xml version="1.0" encoding="utf-8"?>
<!-- Generator: Adobe Illustrator 22.1.0, SVG Export Plug-In . SVG Version: 6.00 Build 0)  -->
<svg version="1.1" id="Layer_1" xmlns="http://www.w3.org/2000/svg" xmlns:xlink="http://www.w3.org/1999/xlink" x="0px" y="0px"
	 viewBox="0 0 39 66" style="enable-background:new 0 0 39 66;" xml:space="preserve">
<style type="text/css">
	.st0{fill:#F08080;}
	.st1{fill:none;stroke:#2E2E2E;stroke-width:3;stroke-linecap:round;}
	.st2{fill:none;stroke:#F08080;stroke-width:3;stroke-linecap:round;}
	.st3{fill:none;stroke:#F08080;stroke-width:3;}
</style>
<title>Group 3</title>
<desc>Created with Sketch.</desc>
<g id="Page-1">
	<g id="Desktop-Copy-4" transform="translate(-29.000000, -27.000000)">
		<g id="Group-3" transform="translate(31.000000, 29.000000)">
			<circle id="Oval" class="st0" cx="7.9" cy="13.1" r="1.9"/>
			<g id="Group">
				<path id="Path-2" class="st1" d="M10,53c3.1,2,5.6,3,7.5,3s4.4-1,7.5-3"/>
				<path id="Path-3" class="st1" d="M12,60c2.6,1.3,4.6,2,6,2s3.4-0.7,6-2"/>
				<path id="Path-4_1_" class="st2" d="M12.3,46.6C10,31.3,9,21.1,9,19.3c0-2.7,1.8,6.6,3.6,9.8s3.8,7,5.5,3.1
					c1.7-3.8-1.4-14.1,0-15.8c0.9-1.1,2.2,1.9,3.9,8.9h0c0,0.1,0.1,0.2,0.2,0.1c0.1,0,0.1-0.1,0.1-0.1l1.7-6.1l1.5-5.5
					c0-0.1,0.1-0.2,0.2-0.1c0.1,0,0.1,0.1,0.1,0.1l5.6,14"/>
				<path id="Oval-3" class="st3" d="M17.5,48c10.7,0,9.3-5.5,11-12.2c1.6-6.3,6.5-13.6,6.5-18.3C35,7.8,27.2,0,17.5,0S0,7.8,0,17.5
					c0,4.7,5.2,12,6.8,18.3C8.4,42.5,6.8,48,17.5,48z"/>
			</g>
		</g>
	</g>
</g>
</svg>
